<?xml version="1.0" encoding="utf-8"?>
<!-- Generator: Adobe Illustrator 21.0.2, SVG Export Plug-In . SVG Version: 6.00 Build 0)  -->
<svg version="1.1" id="Layer_1" xmlns="http://www.w3.org/2000/svg" xmlns:xlink="http://www.w3.org/1999/xlink" x="0px" y="0px"
	 viewBox="0 0 129 129" style="enable-background:new 0 0 129 129;" xml:space="preserve">
<g>
	<path d="M61.6,7.6l-54,54c-0.7,0.7-1.2,1.8-1.2,2.9c0,1.1,0.5,2.2,1.2,2.9l54,54c1.6,1.6,4.2,1.6,5.8,0c0.8-0.8,1.2-1.8,1.2-2.9
		c0-1.1-0.4-2.1-1.2-2.9l-47-47h98.1c2.3,0,4.1-1.8,4.1-4.1c0-2.3-1.8-4.1-4.1-4.1H20.4l47-47c1.6-1.6,1.6-4.2,0-5.8
		S63.2,6.1,61.6,7.6z"/>
</g>
</svg>
